<mxfile host="Electron" agent="Mozilla/5.0 (Windows NT 10.0; Win64; x64) AppleWebKit/537.36 (KHTML, like Gecko) draw.io/24.7.8 Chrome/128.0.6613.36 Electron/32.0.1 Safari/537.36" version="24.7.8">
  <diagram name="Page-1" id="7T09KHGARJXzgDxVG6qi">
    <mxGraphModel dx="1050" dy="638" grid="1" gridSize="10" guides="1" tooltips="1" connect="1" arrows="1" fold="1" page="1" pageScale="1" pageWidth="850" pageHeight="1100" math="0" shadow="0">
      <root>
        <mxCell id="0" />
        <mxCell id="1" parent="0" />
        <mxCell id="Cy2jJ1uJfwL3xEffhUSU-1" value="" style="rounded=0;whiteSpace=wrap;html=1;" vertex="1" parent="1">
          <mxGeometry x="40" y="40" width="300" height="170" as="geometry" />
        </mxCell>
        <mxCell id="Cy2jJ1uJfwL3xEffhUSU-2" value="" style="rounded=0;whiteSpace=wrap;html=1;" vertex="1" parent="1">
          <mxGeometry x="10" y="60" width="80" height="40" as="geometry" />
        </mxCell>
        <mxCell id="Cy2jJ1uJfwL3xEffhUSU-3" value="" style="rounded=0;whiteSpace=wrap;html=1;" vertex="1" parent="1">
          <mxGeometry x="10" y="150" width="80" height="40" as="geometry" />
        </mxCell>
        <mxCell id="Cy2jJ1uJfwL3xEffhUSU-4" value="&amp;lt;&amp;lt;component&amp;gt;&amp;gt;&lt;br&gt;Korisnik" style="rounded=0;whiteSpace=wrap;html=1;" vertex="1" parent="1">
          <mxGeometry x="135" y="105" width="110" height="45" as="geometry" />
        </mxCell>
        <mxCell id="Cy2jJ1uJfwL3xEffhUSU-5" value="Korisnici" style="text;html=1;align=center;verticalAlign=middle;resizable=0;points=[];autosize=1;strokeColor=none;fillColor=none;" vertex="1" parent="1">
          <mxGeometry x="155" y="40" width="70" height="30" as="geometry" />
        </mxCell>
        <mxCell id="Cy2jJ1uJfwL3xEffhUSU-6" value="" style="rounded=0;whiteSpace=wrap;html=1;" vertex="1" parent="1">
          <mxGeometry x="40" y="390" width="300" height="170" as="geometry" />
        </mxCell>
        <mxCell id="Cy2jJ1uJfwL3xEffhUSU-7" value="" style="endArrow=none;html=1;rounded=0;entryX=0.5;entryY=1;entryDx=0;entryDy=0;exitX=1;exitY=0.5;exitDx=0;exitDy=0;exitPerimeter=0;" edge="1" parent="1" target="Cy2jJ1uJfwL3xEffhUSU-1">
          <mxGeometry width="50" height="50" relative="1" as="geometry">
            <mxPoint x="190" y="285" as="sourcePoint" />
            <mxPoint x="310" y="280" as="targetPoint" />
          </mxGeometry>
        </mxCell>
        <mxCell id="Cy2jJ1uJfwL3xEffhUSU-8" value="" style="endArrow=none;html=1;rounded=0;entryX=0;entryY=0.5;entryDx=0;entryDy=0;entryPerimeter=0;exitX=0.583;exitY=0.067;exitDx=0;exitDy=0;exitPerimeter=0;" edge="1" parent="1" source="Cy2jJ1uJfwL3xEffhUSU-19" target="Cy2jJ1uJfwL3xEffhUSU-42">
          <mxGeometry width="50" height="50" relative="1" as="geometry">
            <mxPoint x="190" y="380" as="sourcePoint" />
            <mxPoint x="190" y="320" as="targetPoint" />
          </mxGeometry>
        </mxCell>
        <mxCell id="Cy2jJ1uJfwL3xEffhUSU-9" value="Podaci za prijavu" style="text;html=1;align=center;verticalAlign=middle;resizable=0;points=[];autosize=1;strokeColor=none;fillColor=none;" vertex="1" parent="1">
          <mxGeometry x="207.5" y="290" width="110" height="30" as="geometry" />
        </mxCell>
        <mxCell id="Cy2jJ1uJfwL3xEffhUSU-10" value="" style="rounded=0;whiteSpace=wrap;html=1;" vertex="1" parent="1">
          <mxGeometry x="10" y="420" width="90" height="40" as="geometry" />
        </mxCell>
        <mxCell id="Cy2jJ1uJfwL3xEffhUSU-11" value="" style="rounded=0;whiteSpace=wrap;html=1;" vertex="1" parent="1">
          <mxGeometry x="10" y="500" width="90" height="40" as="geometry" />
        </mxCell>
        <mxCell id="Cy2jJ1uJfwL3xEffhUSU-12" value="&amp;lt;&amp;lt;component&amp;gt;&amp;gt;&lt;br&gt;Prijava" style="rounded=0;whiteSpace=wrap;html=1;" vertex="1" parent="1">
          <mxGeometry x="135" y="445" width="115" height="45" as="geometry" />
        </mxCell>
        <mxCell id="Cy2jJ1uJfwL3xEffhUSU-13" value="" style="endArrow=none;html=1;rounded=0;exitX=1;exitY=0.5;exitDx=0;exitDy=0;" edge="1" parent="1" source="Cy2jJ1uJfwL3xEffhUSU-1">
          <mxGeometry width="50" height="50" relative="1" as="geometry">
            <mxPoint x="260" y="330" as="sourcePoint" />
            <mxPoint x="550" y="125" as="targetPoint" />
          </mxGeometry>
        </mxCell>
        <mxCell id="Cy2jJ1uJfwL3xEffhUSU-14" value="" style="rounded=0;whiteSpace=wrap;html=1;" vertex="1" parent="1">
          <mxGeometry x="770" y="40" width="340" height="170" as="geometry" />
        </mxCell>
        <mxCell id="Cy2jJ1uJfwL3xEffhUSU-15" value="" style="endArrow=none;html=1;rounded=0;exitX=1;exitY=0.5;exitDx=0;exitDy=0;entryX=0;entryY=0.5;entryDx=0;entryDy=0;" edge="1" parent="1" target="Cy2jJ1uJfwL3xEffhUSU-14">
          <mxGeometry width="50" height="50" relative="1" as="geometry">
            <mxPoint x="590" y="125" as="sourcePoint" />
            <mxPoint x="670" y="280" as="targetPoint" />
          </mxGeometry>
        </mxCell>
        <mxCell id="Cy2jJ1uJfwL3xEffhUSU-16" value="" style="rounded=0;whiteSpace=wrap;html=1;" vertex="1" parent="1">
          <mxGeometry x="720" y="60" width="100" height="50" as="geometry" />
        </mxCell>
        <mxCell id="Cy2jJ1uJfwL3xEffhUSU-17" value="" style="rounded=0;whiteSpace=wrap;html=1;" vertex="1" parent="1">
          <mxGeometry x="720" y="145" width="100" height="45" as="geometry" />
        </mxCell>
        <mxCell id="Cy2jJ1uJfwL3xEffhUSU-18" value="&amp;lt;&amp;lt;component&amp;gt;&amp;gt;&lt;br&gt;Aktivacija" style="rounded=0;whiteSpace=wrap;html=1;" vertex="1" parent="1">
          <mxGeometry x="890" y="95" width="120" height="60" as="geometry" />
        </mxCell>
        <mxCell id="Cy2jJ1uJfwL3xEffhUSU-19" value="Prijava" style="text;html=1;align=center;verticalAlign=middle;resizable=0;points=[];autosize=1;strokeColor=none;fillColor=none;" vertex="1" parent="1">
          <mxGeometry x="155" y="390" width="60" height="30" as="geometry" />
        </mxCell>
        <mxCell id="Cy2jJ1uJfwL3xEffhUSU-20" value="&lt;blockquote style=&quot;margin: 0 0 0 40px; border: none; padding: 0px;&quot;&gt;Aktivacija paketa&lt;/blockquote&gt;" style="text;html=1;align=center;verticalAlign=middle;resizable=0;points=[];autosize=1;strokeColor=none;fillColor=none;" vertex="1" parent="1">
          <mxGeometry x="865" y="40" width="150" height="30" as="geometry" />
        </mxCell>
        <mxCell id="Cy2jJ1uJfwL3xEffhUSU-21" value="Podaci za aktivaciju" style="text;html=1;align=center;verticalAlign=middle;resizable=0;points=[];autosize=1;strokeColor=none;fillColor=none;" vertex="1" parent="1">
          <mxGeometry x="492.5" y="65" width="130" height="30" as="geometry" />
        </mxCell>
        <mxCell id="Cy2jJ1uJfwL3xEffhUSU-22" value="" style="endArrow=none;html=1;rounded=0;entryX=0.5;entryY=1;entryDx=0;entryDy=0;exitX=0.942;exitY=0.942;exitDx=0;exitDy=0;exitPerimeter=0;" edge="1" parent="1" source="Cy2jJ1uJfwL3xEffhUSU-24" target="Cy2jJ1uJfwL3xEffhUSU-14">
          <mxGeometry width="50" height="50" relative="1" as="geometry">
            <mxPoint x="940" y="400" as="sourcePoint" />
            <mxPoint x="670" y="280" as="targetPoint" />
          </mxGeometry>
        </mxCell>
        <mxCell id="Cy2jJ1uJfwL3xEffhUSU-23" value="" style="shape=providedRequiredInterface;html=1;verticalLabelPosition=bottom;sketch=0;direction=west;fillColor=#1ba1e2;fontColor=#ffffff;strokeColor=#006EAF;" vertex="1" parent="1">
          <mxGeometry x="550" y="105" width="40" height="40" as="geometry" />
        </mxCell>
        <mxCell id="Cy2jJ1uJfwL3xEffhUSU-24" value="" style="shape=providedRequiredInterface;html=1;verticalLabelPosition=bottom;sketch=0;direction=west;rotation=45;fillColor=#1ba1e2;fontColor=#ffffff;strokeColor=#006EAF;" vertex="1" parent="1">
          <mxGeometry x="920" y="455" width="40" height="40" as="geometry" />
        </mxCell>
        <mxCell id="Cy2jJ1uJfwL3xEffhUSU-25" value="" style="endArrow=none;html=1;rounded=0;exitX=1.01;exitY=0.541;exitDx=0;exitDy=0;exitPerimeter=0;entryX=0.801;entryY=0.093;entryDx=0;entryDy=0;entryPerimeter=0;" edge="1" parent="1" source="Cy2jJ1uJfwL3xEffhUSU-6" target="Cy2jJ1uJfwL3xEffhUSU-24">
          <mxGeometry width="50" height="50" relative="1" as="geometry">
            <mxPoint x="620" y="330" as="sourcePoint" />
            <mxPoint x="870" y="430" as="targetPoint" />
          </mxGeometry>
        </mxCell>
        <mxCell id="Cy2jJ1uJfwL3xEffhUSU-26" value="Pristup sustavu" style="text;html=1;align=center;verticalAlign=middle;resizable=0;points=[];autosize=1;strokeColor=none;fillColor=none;" vertex="1" parent="1">
          <mxGeometry x="795" y="415" width="110" height="30" as="geometry" />
        </mxCell>
        <mxCell id="Cy2jJ1uJfwL3xEffhUSU-27" value="" style="rounded=0;whiteSpace=wrap;html=1;" vertex="1" parent="1">
          <mxGeometry x="1120" y="370" width="500" height="260" as="geometry" />
        </mxCell>
        <mxCell id="Cy2jJ1uJfwL3xEffhUSU-28" value="" style="endArrow=none;html=1;rounded=0;exitX=-0.03;exitY=0.747;exitDx=0;exitDy=0;exitPerimeter=0;entryX=0.004;entryY=0.431;entryDx=0;entryDy=0;entryPerimeter=0;" edge="1" parent="1" source="Cy2jJ1uJfwL3xEffhUSU-24" target="Cy2jJ1uJfwL3xEffhUSU-27">
          <mxGeometry width="50" height="50" relative="1" as="geometry">
            <mxPoint x="1010" y="430" as="sourcePoint" />
            <mxPoint x="1060" y="380" as="targetPoint" />
          </mxGeometry>
        </mxCell>
        <mxCell id="Cy2jJ1uJfwL3xEffhUSU-29" value="" style="rounded=0;whiteSpace=wrap;html=1;" vertex="1" parent="1">
          <mxGeometry x="1070" y="420" width="100" height="40" as="geometry" />
        </mxCell>
        <mxCell id="Cy2jJ1uJfwL3xEffhUSU-30" value="" style="rounded=0;whiteSpace=wrap;html=1;" vertex="1" parent="1">
          <mxGeometry x="1070" y="500" width="100" height="40" as="geometry" />
        </mxCell>
        <mxCell id="Cy2jJ1uJfwL3xEffhUSU-31" value="&amp;lt;&amp;lt;component&amp;gt;&amp;gt;&lt;br&gt;Kabelska Televizija" style="rounded=0;whiteSpace=wrap;html=1;" vertex="1" parent="1">
          <mxGeometry x="1350" y="447.5" width="110" height="55" as="geometry" />
        </mxCell>
        <mxCell id="Cy2jJ1uJfwL3xEffhUSU-32" value="&amp;lt;&amp;lt;component&amp;gt;&amp;gt;&lt;br&gt;Pretraživanje&lt;br&gt;sadržaja" style="rounded=0;whiteSpace=wrap;html=1;" vertex="1" parent="1">
          <mxGeometry x="1500" y="385" width="100" height="55" as="geometry" />
        </mxCell>
        <mxCell id="Cy2jJ1uJfwL3xEffhUSU-33" value="&amp;lt;&amp;lt;component&amp;gt;&amp;gt;&lt;br&gt;Recenziranje&lt;br&gt;sadržaja" style="rounded=0;whiteSpace=wrap;html=1;" vertex="1" parent="1">
          <mxGeometry x="1500" y="535" width="100" height="47.5" as="geometry" />
        </mxCell>
        <mxCell id="Cy2jJ1uJfwL3xEffhUSU-34" value="&amp;lt;&amp;lt;component&amp;gt;&amp;gt;&lt;br&gt;Kupovina premium sadržaja" style="rounded=0;whiteSpace=wrap;html=1;" vertex="1" parent="1">
          <mxGeometry x="1355" y="560" width="105" height="50" as="geometry" />
        </mxCell>
        <mxCell id="Cy2jJ1uJfwL3xEffhUSU-35" value="&amp;lt;&amp;lt;component&amp;gt;&amp;gt;&lt;br&gt;Gledanje sadržaja" style="rounded=0;whiteSpace=wrap;html=1;" vertex="1" parent="1">
          <mxGeometry x="1190" y="535" width="110" height="50" as="geometry" />
        </mxCell>
        <mxCell id="Cy2jJ1uJfwL3xEffhUSU-36" value="&amp;lt;&amp;lt;component&amp;gt;&amp;gt;&lt;br&gt;Pretraživanje&lt;br&gt;kanala" style="rounded=0;whiteSpace=wrap;html=1;" vertex="1" parent="1">
          <mxGeometry x="1190" y="380" width="120" height="60" as="geometry" />
        </mxCell>
        <mxCell id="Cy2jJ1uJfwL3xEffhUSU-37" value="" style="endArrow=classic;html=1;rounded=0;exitX=1;exitY=1;exitDx=0;exitDy=0;" edge="1" parent="1" source="Cy2jJ1uJfwL3xEffhUSU-36" target="Cy2jJ1uJfwL3xEffhUSU-31">
          <mxGeometry width="50" height="50" relative="1" as="geometry">
            <mxPoint x="1010" y="430" as="sourcePoint" />
            <mxPoint x="1060" y="380" as="targetPoint" />
          </mxGeometry>
        </mxCell>
        <mxCell id="Cy2jJ1uJfwL3xEffhUSU-38" value="" style="endArrow=classic;html=1;rounded=0;exitX=1;exitY=0;exitDx=0;exitDy=0;entryX=0;entryY=1;entryDx=0;entryDy=0;" edge="1" parent="1" source="Cy2jJ1uJfwL3xEffhUSU-35" target="Cy2jJ1uJfwL3xEffhUSU-31">
          <mxGeometry width="50" height="50" relative="1" as="geometry">
            <mxPoint x="1010" y="430" as="sourcePoint" />
            <mxPoint x="1060" y="380" as="targetPoint" />
          </mxGeometry>
        </mxCell>
        <mxCell id="Cy2jJ1uJfwL3xEffhUSU-39" value="" style="endArrow=classic;html=1;rounded=0;entryX=0.5;entryY=1;entryDx=0;entryDy=0;" edge="1" parent="1" source="Cy2jJ1uJfwL3xEffhUSU-34" target="Cy2jJ1uJfwL3xEffhUSU-31">
          <mxGeometry width="50" height="50" relative="1" as="geometry">
            <mxPoint x="1385" y="560" as="sourcePoint" />
            <mxPoint x="1060" y="380" as="targetPoint" />
          </mxGeometry>
        </mxCell>
        <mxCell id="Cy2jJ1uJfwL3xEffhUSU-40" value="" style="endArrow=classic;html=1;rounded=0;exitX=0;exitY=1;exitDx=0;exitDy=0;entryX=1;entryY=0.25;entryDx=0;entryDy=0;" edge="1" parent="1" source="Cy2jJ1uJfwL3xEffhUSU-32" target="Cy2jJ1uJfwL3xEffhUSU-31">
          <mxGeometry width="50" height="50" relative="1" as="geometry">
            <mxPoint x="1010" y="430" as="sourcePoint" />
            <mxPoint x="1060" y="380" as="targetPoint" />
          </mxGeometry>
        </mxCell>
        <mxCell id="Cy2jJ1uJfwL3xEffhUSU-41" value="" style="endArrow=classic;html=1;rounded=0;entryX=1;entryY=0.5;entryDx=0;entryDy=0;" edge="1" parent="1" source="Cy2jJ1uJfwL3xEffhUSU-33" target="Cy2jJ1uJfwL3xEffhUSU-31">
          <mxGeometry width="50" height="50" relative="1" as="geometry">
            <mxPoint x="1010" y="430" as="sourcePoint" />
            <mxPoint x="1060" y="380" as="targetPoint" />
          </mxGeometry>
        </mxCell>
        <mxCell id="Cy2jJ1uJfwL3xEffhUSU-42" value="" style="shape=providedRequiredInterface;html=1;verticalLabelPosition=bottom;sketch=0;direction=north;fillColor=#1ba1e2;fontColor=#ffffff;strokeColor=#006EAF;" vertex="1" parent="1">
          <mxGeometry x="170" y="280" width="40" height="40" as="geometry" />
        </mxCell>
      </root>
    </mxGraphModel>
  </diagram>
</mxfile>
